<?xml version="1.0" encoding="UTF-8"?>
<svg xmlns="http://www.w3.org/2000/svg" xmlns:xlink="http://www.w3.org/1999/xlink" width="543.3pt" height="376.3pt" viewBox="0 0 543.3 376.3" version="1.1">
<defs>
<clipPath id="clip1">
  <path d="M 0 258 L 543.300781 258 L 543.300781 305 L 0 305 Z M 0 258 "/>
</clipPath>
<clipPath id="clip2">
  <path d="M 135 331 L 408 331 L 408 376.300781 L 135 376.300781 Z M 135 331 "/>
</clipPath>
</defs>
<g id="surface1">
<g clip-path="url(#clip1)" clip-rule="nonzero">
<path style=" stroke:none;fill-rule:evenodd;fill:rgb(10.594177%,9.812927%,9.423828%);fill-opacity:1;" d="M 40.207031 303.746094 L 45.941406 303.746094 L 43.144531 258.8125 L 35.742188 258.8125 L 27.746094 280.539063 C 25.746094 286.210938 24.144531 291.140625 22.945313 295.667969 L 22.8125 295.667969 C 21.613281 291.007813 20.144531 286.074219 18.28125 280.539063 L 10.617188 258.8125 L 3.214844 258.8125 L 0.0859375 303.746094 L 5.613281 303.746094 L 6.816406 284.476563 C 7.214844 277.671875 7.546875 270.210938 7.679688 264.609375 L 7.816406 264.609375 C 9.082031 269.945313 10.816406 275.679688 12.949219 282.078125 L 20.28125 303.472656 L 24.679688 303.472656 L 32.613281 281.671875 C 34.878906 275.476563 36.675781 269.8125 38.277344 264.609375 L 38.410156 264.609375 C 38.410156 270.144531 38.808594 277.746094 39.144531 284.007813 Z M 54.804688 258.8125 L 54.804688 285.273438 C 54.804688 299.273438 61.742188 304.480469 70.9375 304.480469 C 80.667969 304.480469 87.933594 298.871094 87.933594 285.074219 L 87.933594 258.8125 L 82.066406 258.8125 L 82.066406 285.472656 C 82.066406 295.339844 77.734375 299.738281 71.136719 299.738281 C 65.136719 299.738281 60.671875 295.472656 60.671875 285.472656 L 60.671875 258.8125 Z M 103.464844 303.746094 L 103.464844 284.539063 C 103.464844 277.074219 103.398438 271.679688 103.066406 266.011719 L 103.265625 265.945313 C 105.464844 270.808594 108.464844 275.945313 111.597656 280.941406 L 125.859375 303.746094 L 131.726563 303.746094 L 131.726563 258.8125 L 126.261719 258.8125 L 126.261719 277.671875 C 126.261719 284.609375 126.394531 290.074219 126.925781 296.074219 L 126.726563 296.140625 C 124.660156 291.472656 121.996094 286.808594 118.726563 281.539063 L 104.398438 258.8125 L 97.996094 258.8125 L 97.996094 303.738281 Z M 141.789063 303.746094 L 147.65625 303.746094 L 147.65625 258.8125 L 141.789063 258.8125 Z M 187.980469 297.667969 C 185.648438 298.804688 182.046875 299.539063 178.449219 299.539063 C 167.585938 299.539063 161.25 292.539063 161.25 281.476563 C 161.25 269.679688 168.25 262.945313 178.78125 262.945313 C 182.515625 262.945313 185.648438 263.746094 187.78125 264.8125 L 189.246094 260.078125 C 187.710938 259.28125 184.113281 258.078125 178.582031 258.078125 C 164.652344 258.078125 155.117188 267.546875 155.117188 281.671875 C 155.117188 296.472656 164.585938 304.480469 177.246094 304.480469 C 182.714844 304.480469 187.046875 303.40625 189.113281 302.339844 Z M 196.378906 303.746094 L 202.242188 303.746094 L 202.242188 258.8125 L 196.378906 258.8125 Z M 212.375 303.746094 L 218.171875 303.746094 L 218.171875 285.742188 C 219.507813 286.074219 221.105469 286.140625 222.839844 286.140625 C 228.503906 286.140625 233.503906 284.476563 236.570313 281.207031 C 238.902344 278.871094 240.101563 275.679688 240.101563 271.613281 C 240.101563 267.613281 238.570313 264.34375 236.101563 262.210938 C 233.4375 259.8125 229.238281 258.480469 223.507813 258.480469 C 218.839844 258.480469 215.175781 258.878906 212.375 259.414063 Z M 218.171875 263.546875 C 219.175781 263.347656 221.105469 263.078125 223.640625 263.078125 C 230.039063 263.078125 234.238281 265.945313 234.238281 271.945313 C 234.238281 278.011719 230.039063 281.476563 222.972656 281.476563 C 221.105469 281.476563 219.441406 281.34375 218.171875 281.007813 Z M 264.960938 289.609375 L 269.761719 303.746094 L 275.960938 303.746094 L 260.628906 258.8125 L 253.632813 258.8125 L 238.367188 303.746094 L 244.367188 303.746094 L 249.035156 289.609375 Z M 250.230469 285.074219 L 254.628906 272.078125 C 255.496094 269.34375 256.230469 266.539063 256.832031 263.945313 L 257.03125 263.945313 C 257.699219 266.539063 258.363281 269.210938 259.296875 272.144531 L 263.765625 285.074219 Z M 282.492188 303.738281 L 307.554688 303.738281 L 307.554688 298.871094 L 288.359375 298.871094 L 288.359375 258.8125 L 282.492188 258.8125 Z M 313.953125 303.746094 L 319.820313 303.746094 L 319.820313 258.8125 L 313.953125 258.8125 Z M 329.882813 303.605469 C 332.882813 304.015625 336.28125 304.148438 340.480469 304.148438 C 349.210938 304.148438 356.148438 301.871094 360.414063 297.667969 C 364.542969 293.539063 366.878906 287.539063 366.878906 280.210938 C 366.878906 272.941406 364.542969 267.679688 360.480469 264.011719 C 356.546875 260.34375 350.613281 258.480469 342.28125 258.480469 C 337.683594 258.480469 333.484375 258.878906 329.882813 259.414063 Z M 335.75 263.679688 C 337.28125 263.347656 339.546875 263.078125 342.546875 263.078125 C 354.8125 263.078125 360.8125 269.679688 360.746094 280.410156 C 360.746094 292.539063 354.011719 299.539063 341.617188 299.472656 C 339.347656 299.472656 337.214844 299.472656 335.75 299.207031 Z M 397.539063 289.609375 L 402.335938 303.746094 L 408.535156 303.746094 L 393.207031 258.8125 L 386.207031 258.8125 L 370.945313 303.746094 L 376.945313 303.746094 L 381.609375 289.609375 Z M 382.808594 285.074219 L 387.207031 272.078125 C 388.074219 269.34375 388.808594 266.539063 389.40625 263.945313 L 389.605469 263.945313 C 390.273438 266.539063 390.941406 269.210938 391.875 272.144531 L 396.339844 285.074219 Z M 415.066406 303.605469 C 418.070313 304.015625 421.464844 304.148438 425.667969 304.148438 C 434.398438 304.148438 441.332031 301.871094 445.597656 297.667969 C 449.726563 293.539063 452.0625 287.539063 452.0625 280.210938 C 452.0625 272.941406 449.726563 267.679688 445.664063 264.011719 C 441.730469 260.34375 435.796875 258.480469 427.464844 258.480469 C 422.867188 258.480469 418.667969 258.878906 415.066406 259.414063 Z M 420.933594 263.679688 C 422.46875 263.347656 424.734375 263.078125 427.734375 263.078125 C 439.996094 263.078125 445.996094 269.679688 445.929688 280.410156 C 445.929688 292.539063 439.199219 299.539063 426.800781 299.472656 C 424.535156 299.472656 422.402344 299.472656 420.933594 299.207031 Z M 473.59375 303.605469 C 476.59375 304.015625 479.992188 304.148438 484.191406 304.148438 C 492.921875 304.148438 499.855469 301.871094 504.121094 297.667969 C 508.253906 293.539063 510.585938 287.539063 510.585938 280.210938 C 510.585938 272.941406 508.253906 267.679688 504.1875 264.011719 C 500.253906 260.34375 494.324219 258.480469 485.992188 258.480469 C 481.390625 258.480469 477.191406 258.878906 473.59375 259.414063 Z M 479.457031 263.679688 C 480.992188 263.347656 483.257813 263.078125 486.257813 263.078125 C 498.523438 263.078125 504.519531 269.679688 504.453125 280.410156 C 504.453125 292.539063 497.722656 299.539063 485.324219 299.472656 C 483.058594 299.472656 480.925781 299.472656 479.457031 299.207031 Z M 541.246094 277.878906 L 523.851563 277.878906 L 523.851563 263.679688 L 542.316406 263.679688 L 542.316406 258.8125 L 517.984375 258.8125 L 517.984375 303.738281 L 543.3125 303.738281 L 543.3125 298.871094 L 523.851563 298.871094 L 523.851563 282.671875 L 541.246094 282.671875 Z M 541.246094 277.878906 "/>
</g>
<g clip-path="url(#clip2)" clip-rule="nonzero">
<path style=" stroke:none;fill-rule:evenodd;fill:rgb(10.594177%,9.812927%,9.423828%);fill-opacity:1;" d="M 135.726563 376.265625 L 163.71875 376.265625 L 163.71875 367.734375 L 145.859375 367.734375 L 145.859375 331.339844 L 135.726563 331.339844 Z M 193.449219 364.734375 L 196.914063 376.273438 L 207.847656 376.273438 L 193.847656 331.339844 L 180.585938 331.339844 L 166.855469 376.273438 L 177.382813 376.273438 L 180.515625 364.734375 Z M 181.984375 357.136719 L 184.714844 347.601563 C 185.382813 345.003906 186.113281 341.605469 186.714844 338.9375 L 186.917969 338.9375 C 187.582031 341.539063 188.382813 344.9375 189.117188 347.601563 L 191.914063 357.136719 Z M 227.308594 376.273438 L 237.371094 376.273438 L 237.371094 360.132813 C 238.304688 360.332031 239.503906 360.398438 240.835938 360.398438 C 246.835938 360.398438 252.035156 358.867188 255.5 355.664063 C 258.167969 353.203125 259.566406 349.46875 259.566406 345.003906 C 259.566406 340.605469 257.699219 336.871094 254.835938 334.667969 C 251.832031 332.207031 247.300781 331.007813 241.035156 331.007813 C 234.839844 331.007813 230.441406 331.40625 227.308594 331.941406 Z M 237.371094 339.070313 C 238.105469 338.871094 239.503906 338.738281 241.570313 338.738281 C 246.703125 338.738281 249.5 341.203125 249.5 345.335938 C 249.5 349.867188 246.167969 352.601563 240.769531 352.601563 C 239.304688 352.601563 238.238281 352.535156 237.371094 352.335938 Z M 266.097656 376.265625 L 294.09375 376.265625 L 294.09375 367.734375 L 276.230469 367.734375 L 276.230469 331.339844 L 266.097656 331.339844 Z M 323.820313 364.734375 L 327.289063 376.273438 L 338.21875 376.273438 L 324.222656 331.339844 L 310.957031 331.339844 L 297.226563 376.273438 L 307.757813 376.273438 L 310.890625 364.734375 Z M 312.359375 357.136719 L 315.089844 347.601563 C 315.757813 345.003906 316.488281 341.605469 317.089844 338.9375 L 317.289063 338.9375 C 317.957031 341.539063 318.757813 344.9375 319.488281 347.601563 L 322.289063 357.136719 Z M 346.949219 376.273438 L 357.082031 376.273438 L 357.082031 339.871094 L 369.347656 339.871094 L 369.347656 331.339844 L 334.816406 331.339844 L 334.816406 339.871094 L 346.949219 339.871094 Z M 393.273438 364.734375 L 396.742188 376.273438 L 407.671875 376.273438 L 393.675781 331.339844 L 380.410156 331.339844 L 366.679688 376.273438 L 377.210938 376.273438 L 380.34375 364.734375 Z M 381.8125 357.136719 L 384.542969 347.601563 C 385.210938 345.003906 385.941406 341.605469 386.542969 338.9375 L 386.742188 338.9375 C 387.410156 341.539063 388.210938 344.9375 388.941406 347.601563 L 391.742188 357.136719 Z M 381.8125 357.136719 "/>
</g>
<path style=" stroke:none;fill-rule:evenodd;fill:rgb(10.594177%,9.812927%,9.423828%);fill-opacity:1;" d="M 254.773438 -0.0703125 C 206.832031 -0.0703125 167.828125 48.617188 167.828125 108.460938 C 167.828125 168.3125 206.832031 216.996094 254.773438 216.996094 C 302.714844 216.996094 341.71875 168.3125 341.71875 108.460938 C 341.71875 48.617188 302.714844 -0.0703125 254.773438 -0.0703125 Z M 174.703125 92.816406 L 184.210938 95.695313 L 187.707031 95.371094 L 187.707031 95.363281 L 197.792969 95.007813 L 198.695313 89.804688 L 192.5 84.511719 L 178.476563 80.519531 L 176.746094 81.027344 C 177.636719 77.011719 178.699219 73.078125 179.957031 69.277344 C 184.394531 70.859375 200.8125 76.757813 205.910156 79.304688 C 211.824219 82.265625 224.894531 85.6875 224.894531 85.6875 C 224.894531 85.6875 236.878906 87.398438 239.214844 87.398438 C 241.546875 87.398438 254.464844 87.867188 254.464844 87.867188 L 271.273438 87.554688 C 271.273438 87.554688 279.054688 87.554688 279.207031 89.421875 C 279.363281 91.289063 270.960938 91.289063 270.960938 91.289063 L 258.355469 93.46875 L 249.953125 99.070313 C 249.953125 99.070313 240.457031 102.804688 234.855469 101.40625 C 229.253906 100.003906 225.207031 96.113281 225.207031 96.113281 C 225.207031 96.113281 220.851563 92.378906 216.023438 91.445313 C 211.199219 90.511719 207.621094 92.847656 207.621094 92.847656 C 207.621094 92.847656 218.046875 91.445313 222.714844 97.046875 C 227.386719 102.652344 231.433594 102.960938 234.699219 103.429688 C 237.96875 103.894531 246.371094 102.339844 246.371094 102.339844 C 246.371094 102.339844 253.996094 100.472656 252.128906 104.363281 C 250.261719 108.253906 244.972656 108.097656 244.972656 108.097656 C 244.972656 108.097656 237.191406 107.941406 232.988281 107.941406 C 228.785156 107.941406 226.917969 108.40625 226.296875 110.277344 C 225.984375 112.765625 228.269531 112.261719 228.277344 113.222656 C 228.28125 113.796875 227.484375 115.289063 224.902344 115.40625 L 220.378906 104.796875 L 220.496094 103.289063 L 221.074219 103.289063 L 223.042969 106.304688 L 223.273438 105.726563 L 223.855469 102.828125 L 219.683594 98.539063 L 219.4375 104.398438 L 219.335938 104.21875 L 215.589844 111.496094 L 204.519531 111.144531 L 205.203125 104.105469 L 209.257813 105.953125 L 210.53125 103.757813 L 204.625 100.164063 L 204.042969 100.628906 L 203.8125 103.640625 L 203.234375 106.191406 L 198.898438 110.96875 L 186.921875 110.585938 L 173.730469 107.390625 C 173.78125 102.4375 174.113281 97.574219 174.703125 92.816406 Z M 190.691406 89.035156 L 190.511719 91.976563 L 189.921875 93.015625 L 189.921875 93.828125 L 187.785156 93.914063 L 188.089844 88.277344 L 192.601563 86.503906 L 196.660156 90.214844 L 196.210938 93.773438 L 194.398438 93.773438 L 194.398438 89.035156 Z M 223.71875 117.6875 L 223.726563 117.6875 L 225.011719 120.671875 L 219.5 120.339844 L 220.425781 110.035156 L 222.652344 115.199219 C 222.648438 115.195313 222.644531 115.195313 222.640625 115.195313 Z M 217.867188 116.621094 L 217.351563 120.210938 L 213.480469 119.980469 L 215.367188 116.164063 L 215.390625 116.128906 L 218.988281 108.855469 L 218.355469 113.253906 C 218.34375 113.246094 218.332031 113.238281 218.320313 113.230469 L 217.835938 116.617188 Z M 213.375 115.804688 L 211.292969 119.847656 L 203.71875 119.398438 L 204.089844 115.578125 L 212.914063 115.722656 Z M 202.617188 115.488281 L 202.320313 119.3125 L 192.730469 118.742188 L 194.3125 118.816406 L 203.117188 108.96875 L 202.953125 111.09375 L 202.945313 111.09375 L 202.589844 115.484375 Z M 173.738281 110.726563 L 193.148438 114.320313 L 195.582031 114.621094 L 191.886719 118.691406 L 190.234375 118.589844 L 193.15625 125.882813 L 215.976563 127.160156 L 230.34375 129.242188 L 234.746094 120.902344 L 227.097656 120.554688 L 225.902344 117.746094 C 227.585938 117.449219 230.910156 116.660156 232.054688 114.945313 C 233.609375 112.609375 231.277344 111.054688 232.519531 110.742188 C 233.765625 110.429688 244.816406 110.585938 246.683594 110.429688 C 248.550781 110.277344 259.132813 108.253906 258.976563 104.203125 C 258.820313 100.160156 254.464844 99.847656 254.464844 99.847656 C 254.464844 99.847656 257.578125 93.78125 269.25 93.46875 C 278.742188 92.691406 281.855469 93.46875 282.011719 89.734375 C 282.167969 85.996094 270.960938 85.53125 271.894531 85.371094 C 261.3125 84.285156 251.195313 85.21875 251.195313 85.21875 C 251.195313 85.21875 235.632813 85.21875 224.894531 83.039063 C 214.160156 80.863281 201.394531 75.105469 201.394531 75.105469 L 211.199219 74.324219 L 207.621094 71.835938 L 196.570313 71.679688 L 180.820313 66.757813 C 193.484375 31.191406 221.734375 6.371094 254.46875 6.371094 C 296.804688 6.371094 331.632813 47.871094 334.960938 100.453125 C 333.738281 100.246094 331.570313 99.988281 329.835938 100.3125 C 327.277344 100.789063 324.722656 102.871094 324.722656 102.871094 C 324.722656 102.871094 323.125 100.789063 319.125 101.914063 C 315.128906 103.03125 314.972656 106.386719 314.972656 106.386719 C 314.972656 106.386719 310.492188 104.308594 306.339844 106.546875 C 302.183594 108.785156 302.183594 114.378906 302.183594 114.378906 C 302.183594 114.378906 302.109375 114.492188 301.996094 114.679688 L 294.5 102.132813 L 294.472656 100.308594 L 298.496094 103.554688 L 298.496094 98.578125 L 294.40625 95.515625 L 294.402344 95.222656 L 293.160156 95.148438 L 293.230469 102.386719 L 290.003906 113.425781 C 290.003906 113.425781 287.648438 113.539063 284.40625 113.703125 L 283.789063 103.230469 C 284.164063 103.230469 284.792969 103.3125 285.484375 103.773438 C 286.578125 104.507813 286.214844 104.796875 286.796875 105.089844 C 287.382813 105.382813 288.1875 104.945313 288.1875 104.945313 L 289.210938 102.09375 L 283.507813 98.511719 L 280.234375 113.914063 C 279.332031 113.964844 278.414063 114.007813 277.496094 114.054688 L 277.222656 104.140625 L 273.695313 114.246094 C 270.023438 114.441406 266.929688 114.605469 266.007813 114.664063 C 263.300781 114.851563 259.6875 114.558594 258.484375 114.1875 C 257.28125 113.816406 257.117188 111.96875 258.175781 111.007813 C 259.238281 110.046875 262.699219 109.078125 262.699219 109.078125 C 262.699219 109.078125 264.046875 108.695313 264.632813 106.703125 C 265.222656 104.710938 263.769531 103.851563 264.765625 101.84375 C 265.761719 99.835938 269.730469 98.535156 269.730469 98.535156 C 269.730469 98.535156 279.898438 97.621094 281.933594 97.289063 C 283.972656 96.960938 287.710938 95.464844 287.710938 95.464844 C 287.710938 95.464844 290.324219 93.972656 290.398438 91.132813 C 290.476563 88.289063 287.984375 86.328125 288.96875 85.289063 C 289.949219 84.257813 299.3125 83.019531 299.3125 83.019531 L 305.101563 82.605469 L 313.792969 81.363281 L 322.273438 78.054688 L 330.132813 76.191406 L 329.71875 73.089844 L 298.484375 74.121094 L 298.691406 76.8125 L 314.410156 77.433594 L 304.6875 79.914063 L 298.691406 80.949219 L 292.277344 81.363281 L 289.175781 81.777344 C 289.175781 81.777344 287.410156 81.828125 286.074219 82.8125 C 285.589844 83.164063 285.289063 83.398438 285.246094 84.257813 C 285.167969 85.746094 285.753906 86.328125 286.023438 86.929688 C 286.382813 87.714844 286.429688 87.105469 287.519531 89.429688 C 287.519531 89.429688 288.261719 91.621094 287.3125 92.949219 C 286.363281 94.269531 283.382813 94.808594 283.382813 94.808594 L 276.5 95.765625 C 276.5 95.765625 270.398438 96.214844 267.085938 96.960938 C 263.765625 97.703125 261.550781 99.90625 261.042969 101.84375 C 260.535156 103.78125 261.390625 106.761719 260.835938 107.015625 C 260.277344 107.269531 255.4375 109.597656 254.628906 110.945313 C 253.820313 112.289063 253.59375 112.1875 254.628906 114.871094 C 255.664063 117.5625 259.046875 117.160156 259.046875 117.160156 L 272.847656 116.683594 L 270.058594 124.683594 L 270.378906 125.023438 L 264.355469 124.753906 L 271.519531 130.164063 C 271.519531 130.164063 275.324219 132.769531 278.464844 132.941406 C 283.40625 133.214844 282.550781 131.023438 284.460938 131.1875 C 286.703125 131.382813 285.476563 133.539063 289.429688 133.746094 C 293.292969 133.945313 292.792969 131.847656 294.253906 131.847656 C 295.71875 131.847656 295.425781 133.746094 297.253906 133.96875 C 298.878906 134.160156 300.035156 133.664063 300.273438 133.550781 C 300.410156 134.800781 300.773438 135.921875 301.542969 136.597656 C 304.261719 138.996094 306.5 137.558594 306.5 137.558594 L 310.015625 140.117188 L 309.855469 142.035156 L 307.617188 141.554688 L 304.902344 142.035156 C 304.902344 142.035156 303.941406 139.15625 301.863281 138.355469 C 299.785156 137.558594 297.066406 139.15625 297.066406 139.15625 C 297.066406 139.15625 294.511719 135.800781 290.355469 138.835938 C 290.035156 139.070313 289.777344 139.308594 289.546875 139.539063 C 285.808594 139.0625 278.234375 138.179688 273.132813 138.179688 C 266.132813 138.179688 244.460938 141.511719 232.125 140.179688 C 219.789063 138.847656 183.777344 127.175781 183.777344 127.175781 L 174.859375 125.867188 C 174.199219 120.929688 173.816406 115.871094 173.738281 110.726563 Z M 299.675781 121.886719 C 299.742188 123.496094 300.304688 125.277344 300.710938 126.367188 L 294.835938 126.105469 L 294.554688 106.003906 L 300.398438 116.933594 C 300.398438 116.933594 300.058594 117.882813 299.839844 119.386719 C 299.730469 119.808594 299.648438 120.226563 299.625 120.613281 C 299.597656 121.027344 299.625 121.453125 299.675781 121.886719 Z M 292.867188 109.039063 L 292.21875 125.988281 L 288.074219 125.804688 Z M 286.445313 125.734375 L 285.117188 125.675781 L 284.558594 116.28125 L 289.238281 116.121094 Z M 281.59375 116.382813 L 281.65625 116.136719 L 282.925781 110.9375 L 282.964844 113.78125 L 283 116.335938 L 283.132813 125.585938 L 279.386719 125.421875 Z M 277.808594 125.339844 L 277.5625 116.523438 L 279.695313 116.449219 Z M 275.484375 114.160156 L 275.539063 114.007813 L 275.539063 114.15625 L 275.511719 116.59375 L 275.410156 125.246094 L 271.535156 125.074219 L 274.851563 115.914063 Z M 316.855469 146.773438 C 316.855469 146.773438 317.898438 144.496094 319.503906 144.714844 C 321.113281 144.929688 320.679688 146.039063 320.679688 146.039063 C 320.679688 146.039063 322.679688 144.03125 324.0625 144.414063 C 325.449219 144.804688 326.566406 146.480469 326.566406 146.480469 C 326.566406 146.480469 324.722656 147.066406 324.945313 148.097656 C 325.171875 149.128906 325.976563 149.421875 325.976563 149.421875 C 325.976563 149.421875 325.535156 150.746094 323.917969 150.597656 C 322.300781 150.449219 320.976563 148.980469 320.976563 148.980469 C 320.976563 148.980469 319.0625 152.804688 314.945313 152.363281 C 310.824219 151.921875 309.648438 148.6875 309.648438 148.6875 C 309.648438 148.6875 308.179688 153.828125 302.734375 153.6875 C 297.292969 153.539063 296.265625 147.804688 296.265625 147.804688 C 296.265625 147.804688 293.765625 152.65625 291.410156 151.039063 C 289.058594 149.421875 292.882813 146.039063 292.882813 146.039063 C 292.882813 146.039063 290.234375 144.414063 292.441406 141.621094 C 294.644531 138.828125 297.148438 142.507813 297.148438 142.507813 C 297.148438 142.507813 298.324219 140.007813 300.675781 140.59375 C 303.03125 141.183594 303.472656 144.121094 303.472656 144.121094 L 304.648438 144.714844 C 304.648438 144.714844 306 143.390625 307.441406 143.683594 C 308.886719 143.976563 309.796875 145.742188 309.796875 145.742188 C 309.796875 145.742188 312.183594 143.449219 314.0625 143.976563 C 315.941406 144.507813 316.855469 146.773438 316.855469 146.773438 Z M 315.449219 139.636719 C 318.488281 138.835938 319.605469 136.914063 319.605469 136.914063 L 320.40625 138.039063 L 318.964844 141.871094 L 316.25 141.234375 C 316.25 141.234375 315.449219 139.796875 315.449219 139.636719 Z M 254.46875 211.03125 C 215.726563 211.03125 183.273438 176.273438 175.496094 130.074219 L 186.113281 131.84375 C 186.113281 131.84375 217.785156 142.179688 233.457031 144.183594 C 249.128906 146.179688 260.128906 141.847656 264.132813 141.847656 C 267.253906 141.847656 282.160156 142.863281 288.550781 143.308594 C 288.945313 144.621094 289.875 145.550781 289.875 145.550781 C 289.875 145.550781 285.71875 149.066406 288.757813 152.578125 C 291.792969 156.097656 296.109375 152.742188 296.109375 152.742188 C 296.109375 152.742188 295.628906 156.261719 301.703125 156.261719 C 307.777344 156.261719 309.375 153.0625 309.375 153.0625 L 312.890625 155.140625 L 315.128906 163.613281 L 311.613281 173.363281 L 312.730469 173.363281 L 316.730469 165.691406 L 321.363281 160.574219 L 320.726563 153.703125 L 321.683594 152.578125 L 327.757813 151.648438 C 314.921875 186.679688 286.898438 211.03125 254.46875 211.03125 Z M 328.546875 149.414063 L 328.558594 149.386719 L 327.277344 147.789063 C 327.277344 147.789063 331.316406 144.117188 326.480469 142.828125 C 323.363281 142.003906 323.347656 141.988281 323.347656 141.988281 L 323.921875 139.796875 C 323.921875 139.796875 326.320313 140.117188 328.71875 140.117188 C 330.046875 140.117188 330.917969 139.871094 331.445313 139.652344 C 330.609375 142.984375 329.640625 146.242188 328.546875 149.414063 Z M 325.839844 137.398438 C 321.523438 136.4375 320.246094 131.484375 320.246094 131.484375 C 320.246094 131.484375 318.488281 136.4375 313.210938 137.238281 C 307.9375 138.039063 306.976563 133.878906 306.976563 133.878906 C 306.976563 133.878906 304.101563 136.277344 302.980469 132.761719 C 301.863281 129.246094 303.78125 128.445313 303.78125 128.445313 L 306.179688 128.765625 C 306.179688 128.765625 306.820313 123.8125 311.453125 120.453125 C 316.089844 117.097656 321.84375 123.652344 321.84375 123.652344 C 321.84375 123.652344 323.121094 119.015625 325.839844 116.777344 C 328.558594 114.539063 332.394531 114.699219 332.394531 114.699219 L 330.796875 111.824219 C 330.796875 111.824219 326.957031 112.300781 324.558594 114.21875 C 322.164063 116.136719 320.40625 119.65625 320.40625 119.65625 C 320.40625 119.65625 316.25 115.019531 309.855469 117.414063 C 303.46875 119.8125 303.300781 125.714844 303.300781 125.730469 C 303.25 125.609375 303.195313 125.476563 303.140625 125.335938 C 302.882813 124.644531 302.425781 123.050781 302.660156 120.933594 C 302.761719 120.039063 303.035156 119.324219 303.355469 118.730469 C 303.816406 118.03125 304.285156 117.472656 304.472656 117.253906 C 304.808594 116.941406 305.058594 116.777344 305.058594 116.777344 C 305.058594 116.777344 304.902344 110.703125 308.578125 109.105469 C 312.253906 107.507813 316.25 110.222656 316.25 110.222656 C 316.25 110.222656 316.886719 105.589844 319.765625 104.949219 C 322.644531 104.308594 325.359375 107.027344 325.359375 107.027344 C 325.359375 107.027344 328.238281 104.308594 331.113281 103.511719 C 332.890625 103.019531 334.296875 103.195313 335.117188 103.402344 C 335.1875 105.160156 335.222656 106.925781 335.222656 108.703125 C 335.222656 118.527344 334.121094 128.03125 332.074219 137.027344 L 332.074219 136.117188 C 332.074219 136.117188 330.15625 138.355469 325.839844 137.398438 Z M 325.839844 137.398438 "/>
<path style=" stroke:none;fill-rule:evenodd;fill:rgb(10.594177%,9.812927%,9.423828%);fill-opacity:1;" d="M 284.859375 74.050781 L 267.777344 74.277344 L 311.15625 56.070313 L 310.257813 54.496094 L 268.449219 70.453125 L 298.34375 51.121094 L 297.894531 48.878906 L 266.652344 68.882813 L 299.917969 36.515625 L 298.796875 34.492188 L 265.753906 65.0625 L 284.859375 36.964844 L 282.386719 35.839844 L 260.808594 66.632813 L 281.488281 21.90625 L 279.464844 21.007813 L 259.234375 63.488281 L 266.878906 25.9375 L 263.957031 25.277344 L 256.988281 62.121094 L 256.089844 13.8125 L 254.292969 13.8125 L 253.839844 64.835938 L 247.097656 25.054688 L 244.851563 25.496094 L 250.246094 60.566406 L 231.140625 16.734375 L 229.566406 17.859375 L 246.875 60.566406 L 227.542969 31.796875 L 225.070313 33.144531 L 247.097656 67.308594 L 213.160156 31.570313 L 211.359375 33.144531 L 242.828125 67.085938 L 213.609375 46.628906 L 211.808594 49.101563 L 243.277344 69.78125 L 198.546875 50.226563 L 197.648438 52.699219 L 243.050781 73.378906 L 233.277344 72.816406 L 230.691406 75.398438 L 286.207031 76.746094 Z M 247.007813 73.589844 C 247.597656 69.578125 250.988281 66.539063 255.027344 66.613281 C 259.0625 66.679688 262.21875 69.835938 262.671875 73.859375 Z M 247.007813 73.589844 "/>
<path style=" stroke:none;fill-rule:evenodd;fill:rgb(10.594177%,9.812927%,9.423828%);fill-opacity:1;" d="M 251.21875 71.136719 C 250.25 71.136719 249.464844 71.078125 249.464844 71.597656 C 249.464844 72.121094 250.25 72.8125 251.21875 72.8125 C 252.1875 72.8125 252.972656 72.121094 252.972656 71.597656 C 252.972656 71.078125 252.1875 71.136719 251.21875 71.136719 Z M 251.21875 71.136719 "/>
<path style=" stroke:none;fill-rule:evenodd;fill:rgb(10.594177%,9.812927%,9.423828%);fill-opacity:1;" d="M 257.886719 71.136719 C 256.921875 71.136719 256.136719 71.078125 256.136719 71.597656 C 256.136719 72.121094 256.921875 72.8125 257.886719 72.8125 C 258.855469 72.8125 259.640625 72.121094 259.640625 71.597656 C 259.640625 71.078125 258.855469 71.136719 257.886719 71.136719 Z M 257.886719 71.136719 "/>
<path style=" stroke:none;fill-rule:evenodd;fill:rgb(10.594177%,9.812927%,9.423828%);fill-opacity:1;" d="M 257.648438 68.914063 C 256.828125 68.914063 255.5625 69.222656 255.066406 69.710938 C 255.050781 69.726563 255.039063 69.746094 255.027344 69.757813 L 255.027344 69.710938 L 254.167969 69.710938 L 254.167969 69.855469 C 254.132813 69.785156 254.089844 69.714844 254.019531 69.644531 C 253.523438 69.15625 252.257813 68.851563 251.441406 68.851563 C 250.308594 68.851563 249.285156 69.597656 248.867188 70.578125 C 248.84375 70.636719 248.886719 70.773438 249.058594 70.773438 C 249.230469 70.773438 249.421875 70.773438 249.421875 70.773438 C 249.917969 70.234375 250.648438 69.828125 251.441406 69.828125 C 252.941406 69.828125 254.15625 71.046875 254.15625 72.546875 L 254.167969 72.453125 L 254.167969 73.355469 L 255.027344 73.355469 L 255.027344 71.933594 C 255.328125 70.761719 256.382813 69.894531 257.648438 69.894531 C 258.4375 69.894531 259.167969 70.296875 259.667969 70.835938 C 259.667969 70.835938 259.859375 70.839844 260.027344 70.839844 C 260.199219 70.839844 260.242188 70.703125 260.21875 70.648438 C 259.804688 69.660156 258.777344 68.914063 257.648438 68.914063 Z M 257.648438 68.914063 "/>
<path style=" stroke:none;fill-rule:evenodd;fill:rgb(10.594177%,9.812927%,9.423828%);fill-opacity:1;" d="M 225.796875 66.425781 L 224.300781 66.425781 L 224.300781 70.527344 L 221.617188 70.527344 L 221.617188 66.664063 L 221.066406 66.664063 L 220.117188 67.136719 L 220.117188 70.609375 L 216.492188 70.609375 L 216.492188 63.351563 L 214.914063 63.351563 L 214.914063 70.289063 L 210.339844 69.976563 L 214.757813 74.394531 L 226.507813 74.945313 L 230.566406 70.882813 L 225.796875 70.84375 Z M 225.796875 66.425781 "/>
<path style=" stroke:none;fill-rule:evenodd;fill:rgb(10.594177%,9.812927%,9.423828%);fill-opacity:1;" d="M 292.835938 65.402344 L 291.257813 65.402344 L 291.257813 71.710938 L 288.96875 71.710938 L 288.417969 72.738281 L 286.601563 73.367188 L 289.046875 77.621094 L 293.464844 77.621094 L 295.753906 73.289063 L 295.753906 71.945313 L 292.835938 71.945313 Z M 292.835938 65.402344 "/>
<path style=" stroke:none;fill-rule:evenodd;fill:rgb(10.594177%,9.812927%,9.423828%);fill-opacity:1;" d="M 310.449219 88.164063 L 310.273438 88.019531 L 310.183594 88.089844 L 309.632813 87.722656 L 309.632813 85.984375 L 312.394531 85.746094 L 312.789063 86.066406 L 313.339844 85.984375 L 313.8125 84.960938 L 313.65625 83.855469 L 313.339844 83.460938 L 312.867188 83.777344 L 310.5 84.011719 L 309.476563 83.539063 L 309 84.011719 L 309 89.015625 L 302.566406 94.050781 L 302.566406 99.757813 L 316.152344 99.757813 L 316.152344 99.710938 L 330.488281 95.0625 L 330.761719 88.761719 L 323.199219 84.882813 Z M 312.160156 98.871094 L 312.234375 94.738281 L 310.027344 94.738281 L 310.027344 98.871094 C 309.160156 98.871094 308.269531 98.871094 307.429688 98.871094 L 307.976563 94.660156 L 305.375 94.660156 L 305.375 98.871094 C 304.371094 98.871094 303.640625 98.871094 303.449219 98.871094 C 303.449219 98.171875 303.449219 94.839844 303.449219 94.480469 C 303.757813 94.238281 309.746094 90.835938 310.253906 90.4375 C 310.730469 90.835938 314.492188 93.058594 314.769531 93.289063 C 314.773438 93.640625 314.832031 98.128906 314.839844 98.871094 C 314.597656 98.871094 313.539063 98.871094 312.160156 98.871094 Z M 329.816406 89.835938 C 329.820313 89.835938 329.824219 89.835938 329.832031 89.835938 C 329.792969 90.675781 329.652344 93.929688 329.632813 94.414063 C 329.125 94.578125 318.203125 98.117188 316.140625 98.785156 L 316.066406 92.871094 L 329.664063 90.007813 Z M 329.816406 89.835938 "/>
<path style=" stroke:none;fill-rule:evenodd;fill:rgb(10.594177%,9.812927%,9.423828%);fill-opacity:1;" d="M 322.171875 92.847656 L 318.386719 93.398438 L 318.308594 95.6875 L 322.171875 94.738281 Z M 322.171875 92.847656 "/>
<path style=" stroke:none;fill-rule:evenodd;fill:rgb(10.594177%,9.812927%,9.423828%);fill-opacity:1;" d="M 327.613281 93.558594 L 327.613281 91.980469 L 324.222656 92.289063 L 324.378906 93.871094 Z M 327.613281 93.558594 "/>
<path style=" stroke:none;fill-rule:evenodd;fill:rgb(10.594177%,9.812927%,9.423828%);fill-opacity:1;" d="M 275.085938 158.894531 C 275.085938 158.894531 275.914063 160.796875 277.054688 159.71875 C 278.195313 158.640625 276.675781 157.6875 276.675781 157.6875 C 276.675781 157.6875 276.929688 156.992188 277.5 154.769531 C 278.070313 152.550781 277.878906 150.710938 277.691406 150.773438 C 275.976563 150.710938 275.277344 149.820313 275.277344 149.820313 C 275.277344 149.820313 274.199219 151.726563 274.261719 152.164063 C 274.328125 152.613281 275.785156 152.804688 275.785156 152.804688 L 275.277344 156.289063 L 269.058594 149.632813 L 272.804688 146.078125 L 271.027344 143.984375 L 267.664063 146.710938 L 265.761719 146.078125 C 265.761719 146.078125 263.539063 145.507813 262.207031 146.777344 C 260.875 148.039063 261.574219 150.453125 261.574219 150.453125 L 259.988281 152.488281 L 262.015625 154.960938 L 264.046875 152.867188 C 264.046875 152.867188 265.570313 153.820313 266.777344 154.453125 C 267.980469 155.085938 271.21875 155.152344 271.21875 155.152344 L 273.628906 157.496094 C 273.628906 157.496094 272.675781 157.878906 271.152344 158.007813 C 269.632813 158.132813 269.125 157.496094 269.125 157.496094 L 269.820313 156.230469 L 260.683594 158.386719 C 260.683594 158.386719 261.128906 159.210938 266.648438 160.101563 C 272.167969 160.988281 275.085938 158.894531 275.085938 158.894531 Z M 265.378906 151.851563 C 265.332031 151.8125 266.902344 150.390625 266.902344 150.390625 L 269.378906 152.867188 C 269.378906 152.867188 267.15625 153.3125 265.378906 151.851563 Z M 265.378906 151.851563 "/>
<path style=" stroke:none;fill-rule:evenodd;fill:rgb(10.594177%,9.812927%,9.423828%);fill-opacity:1;" d="M 233.042969 166.039063 L 232.121094 162.695313 L 232.792969 161.988281 L 232.832031 160.871094 C 232.832031 160.871094 229.816406 162.113281 227.765625 162.441406 C 225.71875 162.773438 224.25 164.035156 224.25 164.035156 C 224.25 164.035156 224.542969 161.613281 224.921875 159.679688 C 225.433594 157.0625 226.59375 155.746094 226.59375 155.746094 C 226.59375 155.746094 228.605469 159.847656 229.695313 160.179688 C 230.78125 160.519531 231.953125 160.519531 232.539063 158.59375 C 233.125 156.664063 232.792969 154.070313 232.792969 154.070313 L 232.207031 147.703125 L 232.207031 145.109375 L 230.78125 146.785156 L 228.773438 146.03125 L 228.269531 144.109375 L 226.929688 145.867188 L 224.921875 147.453125 C 224.921875 147.453125 220.734375 148.371094 215.878906 153.484375 C 213.386719 156.105469 212.53125 151.558594 205.414063 151.390625 C 199.382813 151.246094 198.632813 155.578125 198.378906 156.664063 C 198.128906 157.753906 197.960938 161.6875 198.546875 164.117188 C 199.132813 166.546875 201.226563 169.058594 201.226563 169.058594 L 202.484375 175.085938 L 202.484375 181.28125 C 202.484375 181.28125 202.523438 182.304688 203.65625 182.285156 C 204.785156 182.265625 204.910156 181.53125 204.910156 181.53125 C 204.910156 181.53125 204.382813 177.007813 204.242188 174.246094 C 203.988281 169.308594 205.328125 168.636719 205.328125 168.636719 L 206.5 170.730469 L 206.417969 174.078125 L 205.496094 180.109375 C 205.496094 180.109375 205.566406 181.664063 206.585938 182.117188 C 207.601563 182.574219 207.890625 182.222656 208.09375 181.867188 C 208.292969 181.511719 207.972656 176.8125 208.09375 174.746094 C 208.210938 172.6875 208.929688 167.71875 208.929688 167.71875 L 211.523438 169.058594 L 212.949219 175.246094 L 213.199219 183.289063 C 213.199219 183.289063 213.238281 184.589844 213.953125 184.796875 C 214.667969 185.003906 214.539063 184.945313 215.039063 184.878906 C 215.542969 184.816406 216.148438 184.410156 216.128906 183.789063 C 216.109375 183.175781 215.878906 173.664063 215.878906 173.664063 L 216.96875 172.574219 L 217.21875 183.871094 C 217.21875 183.871094 217.511719 184.328125 217.886719 184.628906 C 218.261719 184.933594 219.3125 184.796875 219.3125 184.796875 C 219.3125 184.796875 219.988281 184.246094 219.980469 183.371094 C 219.972656 182.496094 219.898438 172.90625 219.898438 172.90625 L 220.820313 172.90625 L 222.578125 175.839844 L 222.410156 178.433594 L 222.074219 184.796875 C 222.074219 184.796875 222.675781 185.855469 223.582031 185.800781 C 224.488281 185.746094 224.503906 185.382813 224.503906 185.382813 C 224.503906 185.382813 224.246094 184.488281 224.417969 183.621094 C 224.59375 182.761719 225.003906 180.863281 225.003906 180.863281 C 225.003906 180.863281 225.277344 176.191406 225.675781 176.425781 C 226.074219 176.65625 225.761719 179.136719 225.925781 181.195313 C 226.089844 183.257813 226.929688 185.300781 226.929688 185.300781 C 226.929688 185.300781 227.175781 186.226563 227.933594 185.886719 C 228.695313 185.546875 228.6875 184.714844 228.6875 184.714844 C 228.6875 184.714844 228.484375 183.679688 228.269531 182.035156 C 228.054688 180.386719 228.019531 174.664063 228.019531 174.664063 L 227.097656 170.144531 C 227.097656 170.144531 229.488281 167.109375 230.195313 167.464844 C 230.90625 167.824219 230.851563 169.171875 231.117188 169.476563 C 231.382813 169.777344 232.460938 169.914063 232.960938 168.804688 C 233.570313 167.445313 233.042969 166.039063 233.042969 166.039063 Z M 223.320313 158.636719 C 221.929688 162.050781 222.046875 165.746094 222.046875 165.746094 L 217.914063 166.527344 L 215.074219 169.882813 L 214.039063 167.6875 L 210.683594 165.621094 L 207.453125 162.136719 L 206.679688 163.816406 C 206.679688 163.816406 205.367188 166.507813 204.484375 166.527344 C 203.597656 166.539063 201.253906 162.265625 201.253906 162.265625 C 201.253906 162.265625 199.84375 159.863281 201.382813 157.230469 C 202.925781 154.59375 205.210938 153.6875 210.425781 155.421875 C 215.640625 157.152344 216.222656 156.660156 216.222656 156.660156 C 216.222656 156.660156 216.761719 156.972656 219.097656 154.234375 C 220.671875 152.386719 221.746094 150.550781 224.628906 149.996094 C 225.773438 149.777344 227.210938 151.160156 227.210938 151.160156 C 227.210938 151.160156 228.117188 149.65625 229.019531 149.609375 C 229.925781 149.5625 231.734375 153.996094 231.734375 153.996094 C 231.734375 153.996094 232.390625 158.09375 231.136719 158.546875 C 228.953125 159.335938 229.867188 156.28125 229.539063 156.578125 C 229.207031 156.882813 226.566406 153.871094 226.566406 153.871094 C 226.566406 153.871094 224.714844 155.21875 223.320313 158.636719 Z M 223.320313 158.636719 "/>
<path style=" stroke:none;fill-rule:evenodd;fill:rgb(10.594177%,9.812927%,9.423828%);fill-opacity:1;" d="M 254.527344 193.664063 L 253.496094 192.960938 C 253.496094 192.960938 254.203125 189.652344 252.464844 187.539063 C 250.730469 185.421875 249.484375 184.011719 246.992188 183.308594 C 244.496094 182.605469 242.074219 181.980469 239.183594 182.820313 C 237.5 183.308594 236.847656 183.851563 234.574219 186.617188 C 232.292969 189.382813 233.109375 193.609375 233.648438 194.476563 C 234.191406 195.347656 237.285156 198.925781 237.285156 198.925781 L 237.773438 201.636719 C 237.773438 201.636719 238.097656 202.121094 238.53125 202.179688 C 238.964844 202.234375 239.183594 202.015625 239.183594 202.015625 L 240.15625 201.148438 L 240.589844 202.503906 C 240.589844 202.503906 240.972656 202.773438 241.457031 202.558594 C 241.945313 202.34375 242.328125 201.746094 242.328125 201.746094 L 242.433594 199.847656 C 242.433594 199.847656 242.976563 200.171875 243.683594 200.28125 C 244.386719 200.390625 244.929688 200.496094 244.929688 200.496094 L 244.820313 202.722656 C 244.820313 202.722656 245.09375 203.261719 245.582031 203.046875 C 246.066406 202.828125 246.285156 202.394531 246.285156 202.394531 L 246.339844 200.769531 C 246.339844 200.769531 247.152344 200.605469 247.855469 200.660156 C 248.5625 200.714844 249.59375 200.984375 249.59375 200.984375 L 249.539063 202.9375 C 249.539063 202.9375 249.375 203.15625 249.917969 203.203125 C 250.460938 203.265625 250.625 202.773438 250.625 202.773438 L 250.730469 200.878906 L 251.597656 200.769531 C 251.597656 200.769531 252.523438 200.117188 252.957031 198.492188 C 253.390625 196.867188 253.117188 195.34375 253.117188 195.34375 L 254.3125 195.238281 C 254.3125 195.238281 254.582031 196.050781 254.960938 196.105469 C 255.339844 196.160156 255.339844 195.78125 255.339844 195.78125 L 255.179688 194.425781 Z M 245.851563 185.746094 C 243.953125 184.988281 241.027344 184.933594 241.027344 184.933594 C 241.027344 184.933594 240.644531 184.933594 240.589844 185.367188 C 240.535156 185.804688 241.296875 186.128906 241.296875 186.128906 C 241.296875 186.128906 244.820313 186.941406 245.796875 188.242188 C 246.773438 189.539063 247.695313 190.195313 247.316406 192.253906 C 246.9375 194.316406 246.953125 193.371094 245.851563 193.285156 C 245.144531 193.234375 242.867188 195.238281 242.921875 195.886719 C 242.976563 196.539063 243.628906 196.371094 243.628906 196.371094 L 246.449219 195.996094 C 246.449219 195.996094 247.316406 195.835938 247.316406 197.027344 C 247.316406 198.21875 246.503906 198.164063 246.503906 198.164063 L 242.816406 198.21875 C 242.816406 198.21875 241.242188 197.351563 241.078125 196.703125 C 240.914063 196.050781 241.132813 195.128906 241.132813 195.128906 C 241.132813 195.128906 240.320313 195.78125 237.285156 195.019531 C 234.246094 194.261719 235.332031 189.054688 235.332031 189.054688 C 235.332031 189.054688 236.957031 186.128906 237.988281 185.203125 C 239.019531 184.285156 240.484375 183.90625 240.484375 183.90625 C 240.484375 183.90625 242.21875 183.742188 244.496094 184.011719 C 246.773438 184.285156 249.648438 186.398438 249.648438 186.398438 C 249.648438 186.398438 250.949219 187.753906 251.113281 188.460938 C 251.273438 189.164063 251.492188 191.824219 251.113281 192.363281 C 250.730469 192.90625 250.082031 193.234375 249.808594 192.414063 C 249.539063 191.605469 249.753906 189.597656 249.324219 188.894531 C 248.886719 188.1875 247.75 186.507813 245.851563 185.746094 Z M 251.980469 198.328125 C 251.980469 198.328125 251.4375 198.871094 251.328125 198.328125 C 251.21875 197.785156 250.730469 197.949219 250.730469 197.949219 C 250.730469 197.949219 250.625 198.328125 249.972656 198.382813 C 249.324219 198.4375 249.484375 198.058594 249.484375 198.058594 C 249.484375 198.058594 249.753906 197.351563 249.703125 196.648438 C 249.648438 195.945313 248.941406 195.941406 248.996094 195.507813 C 249.050781 195.074219 249.863281 195.128906 249.863281 195.128906 C 249.863281 195.128906 250.296875 195.617188 250.785156 195.617188 C 251.273438 195.617188 251.164063 194.859375 251.164063 194.859375 L 251.597656 194.804688 C 251.597656 194.804688 251.871094 195.183594 252.03125 195.835938 C 252.195313 196.484375 251.980469 198.328125 251.980469 198.328125 Z M 251.980469 198.328125 "/>
<path style=" stroke:none;fill-rule:evenodd;fill:rgb(10.594177%,9.812927%,9.423828%);fill-opacity:1;" d="M 269.710938 187.734375 C 269.699219 187.828125 269.703125 187.867188 269.714844 187.871094 C 269.742188 187.59375 269.746094 187.496094 269.710938 187.734375 Z M 269.710938 187.734375 "/>
<path style=" stroke:none;fill-rule:evenodd;fill:rgb(10.594177%,9.812927%,9.423828%);fill-opacity:1;" d="M 307.339844 175.261719 C 307.339844 175.261719 306.929688 174.648438 306.386719 174.164063 C 305.839844 173.691406 305.636719 173.828125 305.636719 173.828125 L 305.839844 172.191406 L 305.226563 172.054688 C 305.226563 172.054688 304.546875 173.761719 304.273438 173.964844 C 304 174.171875 302.636719 173.621094 302.636719 173.621094 L 302.570313 172.804688 C 302.570313 172.804688 304.410156 170.898438 305.160156 166.121094 C 305.910156 161.355469 303.046875 160.878906 303.046875 160.878906 C 303.046875 160.878906 300.046875 159.652344 297.796875 159.445313 C 295.546875 159.242188 292.410156 157.328125 292.410156 157.328125 C 292.410156 157.328125 289.957031 161.695313 282.390625 160.738281 C 279.527344 160.535156 277.617188 162.308594 277.617188 162.308594 L 274.890625 166.398438 L 272.097656 168.855469 C 272.097656 168.855469 270.53125 171.648438 268.550781 172.121094 C 266.574219 172.601563 266.097656 169.121094 266.097656 169.121094 L 265.417969 168.785156 L 265.074219 170.078125 L 265.6875 171.785156 L 265.621094 172.871094 L 263.847656 172.871094 L 262.078125 171.511719 L 263.847656 174.304688 L 263.984375 178.261719 L 262.621094 181.257813 C 262.621094 181.257813 262.007813 181.941406 262.28125 182.828125 C 262.554688 183.714844 265.007813 186.03125 267.53125 184.394531 C 270.050781 182.757813 270.121094 181.941406 270.121094 181.941406 L 270.9375 184.804688 C 270.9375 184.804688 269.835938 187.945313 269.714844 187.871094 C 269.640625 188.714844 269.371094 191.210938 269.371094 191.210938 C 269.371094 191.210938 271.757813 191.757813 272.574219 190.871094 C 273.390625 189.984375 272.4375 190.121094 272.984375 187.664063 C 273.382813 185.871094 275.847656 184.257813 275.847656 184.257813 L 276.390625 184.871094 L 276.324219 191.144531 L 277.550781 191.824219 L 278.914063 191.210938 C 278.914063 191.210938 279.324219 187.191406 280.480469 184.734375 C 281.640625 182.28125 283.414063 181.664063 283.414063 181.664063 C 283.414063 181.664063 285.390625 181.53125 285.664063 183.984375 C 285.933594 186.441406 285.730469 188.078125 285.730469 188.078125 C 285.730469 188.078125 286.410156 190.054688 287.433594 189.984375 C 288.457031 189.914063 288.320313 189.507813 288.320313 189.507813 L 288.253906 186.644531 L 288.730469 186.441406 C 288.730469 186.441406 289.070313 187.53125 290.433594 188.894531 C 291.796875 190.257813 293.09375 188.960938 293.09375 188.960938 C 293.09375 188.960938 291.183594 186.578125 291.523438 185.828125 C 291.867188 185.078125 294.386719 182.828125 294.386719 182.828125 C 294.386719 182.828125 296.976563 182.28125 298.476563 182.414063 C 299.976563 182.554688 300.046875 183.914063 300.046875 183.914063 L 300.183594 189.710938 L 301.203125 189.984375 L 302.089844 189.507813 L 301.953125 184.53125 C 301.953125 184.53125 302.773438 181.121094 303.933594 180.914063 C 305.089844 180.714844 304.953125 181.464844 304.953125 181.464844 L 306.046875 181.664063 C 306.046875 181.664063 307.410156 181.121094 307.679688 180.304688 C 307.953125 179.484375 307.339844 178.871094 307.339844 178.871094 Z M 270.9375 179.144531 L 269.03125 180.441406 L 267.667969 180.644531 C 267.667969 180.644531 267.050781 183.101563 265.484375 183.101563 C 263.917969 183.101563 264.191406 182.28125 264.191406 182.28125 C 264.191406 182.28125 265.417969 180.097656 265.824219 178.871094 C 266.234375 177.644531 266.304688 174.304688 266.304688 174.304688 L 267.121094 173.554688 C 267.121094 173.554688 268.210938 172.804688 268.757813 173.691406 C 269.300781 174.578125 271.144531 175.121094 271.144531 175.121094 Z M 299.433594 173.351563 L 297.457031 173.414063 L 297.523438 171.511719 L 298.070313 169.398438 L 297.457031 168.105469 L 296.773438 167.761719 C 296.773438 167.761719 295.207031 168.101563 294.863281 168.511719 C 294.523438 168.921875 294.113281 173.488281 294.113281 173.488281 C 294.113281 173.488281 292.136719 174.035156 290.296875 173.828125 C 288.457031 173.621094 288.320313 174.511719 288.320313 174.511719 L 286.753906 178.261719 C 286.753906 178.261719 285.253906 178.738281 284.980469 178.941406 C 284.707031 179.144531 283.140625 179.691406 283.140625 179.691406 L 281.980469 179.007813 L 281.914063 178.191406 L 281.097656 178.261719 L 280.617188 180.164063 L 280.34375 181.738281 C 280.34375 181.738281 279.320313 183.164063 278.84375 183.304688 C 278.367188 183.441406 278.097656 182.621094 278.097656 182.621094 L 277.347656 179.964844 C 277.347656 179.964844 277.210938 179.144531 277.074219 178.664063 C 276.9375 178.191406 275.777344 178.601563 275.777344 178.601563 C 275.777344 178.601563 275.300781 180.03125 275.097656 181.257813 C 274.890625 182.488281 273.1875 183.714844 273.1875 183.714844 L 272.097656 180.851563 C 272.097656 180.851563 272.027344 179.828125 272.097656 179.28125 C 272.164063 178.738281 272.847656 176.28125 272.847656 176.28125 L 275.164063 175.191406 L 272.300781 174.78125 L 272.027344 174.304688 L 273.390625 173.554688 L 274.6875 172.054688 L 274.074219 171.851563 L 271.6875 173.285156 L 272.097656 172.121094 C 272.097656 172.121094 275.574219 169.261719 276.527344 168.578125 C 277.480469 167.898438 276.664063 167.011719 279.1875 164.761719 C 281.707031 162.511719 284.570313 164.492188 287.503906 164.011719 C 290.433594 163.535156 292.886719 160.945313 292.886719 160.945313 L 296.363281 162.171875 L 300.863281 162.921875 C 300.863281 162.921875 301.953125 163.535156 302.089844 165.851563 C 302.226563 168.171875 299.433594 173.351563 299.433594 173.351563 Z M 299.433594 173.351563 "/>
<path style=" stroke:none;fill-rule:evenodd;fill:rgb(10.594177%,9.812927%,9.423828%);fill-opacity:1;" d="M 269.300781 177.988281 L 270.121094 177.164063 L 270.257813 176.214844 L 269.234375 176.28125 L 269.097656 176.351563 L 268.824219 177.578125 Z M 269.300781 177.988281 "/>
</g>
</svg>
